<svg xmlns="http://www.w3.org/2000/svg" width="1280" height="720" viewBox="0 0 1280 720" role="img" aria-labelledby="title desc">
  <title id="title">Godot Codex Bridge overview</title>
  <desc id="desc">A diagram showing Codex sending reviewable local commands through a project file queue into the Godot editor.</desc>
  <defs>
    <linearGradient id="bg" x1="0" x2="1" y1="0" y2="1">
      <stop offset="0%" stop-color="#101826"/>
      <stop offset="100%" stop-color="#0b1020"/>
    </linearGradient>
    <linearGradient id="panel" x1="0" x2="1" y1="0" y2="1">
      <stop offset="0%" stop-color="#1b2940"/>
      <stop offset="100%" stop-color="#121b2b"/>
    </linearGradient>
    <filter id="shadow" x="-20%" y="-20%" width="140%" height="140%">
      <feDropShadow dx="0" dy="14" stdDeviation="16" flood-color="#000000" flood-opacity="0.35"/>
    </filter>
    <style>
      .title { font: 700 54px -apple-system, BlinkMacSystemFont, "Segoe UI", sans-serif; fill: #f8fbff; }
      .subtitle { font: 400 24px -apple-system, BlinkMacSystemFont, "Segoe UI", sans-serif; fill: #aebbd1; }
      .label { font: 700 25px -apple-system, BlinkMacSystemFont, "Segoe UI", sans-serif; fill: #f7fbff; }
      .small { font: 500 17px -apple-system, BlinkMacSystemFont, "Segoe UI", sans-serif; fill: #b9c6da; }
      .tiny { font: 500 14px -apple-system, BlinkMacSystemFont, "Segoe UI", sans-serif; fill: #8fa0ba; }
      .cardTitle { font: 700 19px -apple-system, BlinkMacSystemFont, "Segoe UI", sans-serif; fill: #f7fbff; }
      .cardText { font: 500 14px -apple-system, BlinkMacSystemFont, "Segoe UI", sans-serif; fill: #b9c6da; }
      .stroke { stroke: #2e4263; stroke-width: 2; }
      .accent { fill: #55d58a; }
      .blue { fill: #55a7ff; }
      .muted { fill: #263650; }
    </style>
  </defs>

  <rect width="1280" height="720" fill="url(#bg)"/>
  <circle cx="1060" cy="82" r="180" fill="#17375d" opacity="0.22"/>
  <circle cx="190" cy="620" r="230" fill="#175d3a" opacity="0.12"/>

  <text x="70" y="86" class="title">Godot Codex Bridge</text>
  <text x="72" y="126" class="subtitle">Local, reviewable editor automation for Godot 4</text>

  <g filter="url(#shadow)">
    <rect x="72" y="185" width="270" height="190" rx="18" fill="url(#panel)" class="stroke"/>
    <rect x="104" y="226" width="206" height="82" rx="10" fill="#0d1320" stroke="#344967" stroke-width="2"/>
    <circle cx="126" cy="250" r="6" fill="#ff6b6b"/>
    <circle cx="148" cy="250" r="6" fill="#ffd166"/>
    <circle cx="170" cy="250" r="6" fill="#55d58a"/>
    <text x="118" y="286" class="small">$ codex</text>
    <text x="108" y="338" class="label">Codex</text>
    <text x="108" y="365" class="small">Generates explicit commands</text>
  </g>

  <path d="M356 280 C398 280 406 280 448 280" fill="none" stroke="#55a7ff" stroke-width="5" stroke-linecap="round"/>
  <path d="M448 280 L430 269 L430 291 Z" fill="#55a7ff"/>

  <g filter="url(#shadow)">
    <rect x="466" y="170" width="350" height="220" rx="22" fill="url(#panel)" class="stroke"/>
    <text x="506" y="226" class="label">Project File Queue</text>
    <text x="506" y="258" class="small">No port required by default</text>
    <rect x="506" y="292" width="130" height="52" rx="10" fill="#132033" stroke="#395174" stroke-width="2"/>
    <text x="543" y="326" class="small">inbox</text>
    <rect x="646" y="292" width="130" height="52" rx="10" fill="#132033" stroke="#395174" stroke-width="2"/>
    <text x="679" y="326" class="small">outbox</text>
    <text x="506" y="368" class="tiny">res://.godot/godot_codex_bridge/</text>
  </g>

  <path d="M832 280 C874 280 886 280 928 280" fill="none" stroke="#55a7ff" stroke-width="5" stroke-linecap="round"/>
  <path d="M928 280 L910 269 L910 291 Z" fill="#55a7ff"/>

  <g filter="url(#shadow)">
    <rect x="946" y="154" width="270" height="250" rx="18" fill="url(#panel)" class="stroke"/>
    <rect x="970" y="188" width="222" height="164" rx="10" fill="#101827" stroke="#344967" stroke-width="2"/>
    <rect x="986" y="208" width="56" height="126" rx="6" fill="#17253a"/>
    <rect x="1056" y="208" width="118" height="126" rx="6" fill="#0d1624"/>
    <circle cx="1115" cy="272" r="18" class="blue"/>
    <rect x="1075" y="309" width="82" height="10" rx="5" class="accent"/>
    <text x="986" y="372" class="label">Godot Editor</text>
    <text x="986" y="398" class="small">Visible scene and dock updates</text>
  </g>

  <g>
    <rect x="82" y="455" width="170" height="88" rx="14" fill="#122035" stroke="#2e4263" stroke-width="2"/>
    <circle cx="112" cy="486" r="12" class="accent"/>
    <text x="136" y="490" class="cardTitle">Project-safe</text>
    <text x="105" y="522" class="cardText">Validates project_root</text>

    <rect x="272" y="455" width="170" height="88" rx="14" fill="#122035" stroke="#2e4263" stroke-width="2"/>
    <circle cx="302" cy="486" r="12" class="blue"/>
    <text x="326" y="490" class="cardTitle">Visible</text>
    <text x="295" y="522" class="cardText">Selects nodes and opens scenes</text>

    <rect x="462" y="455" width="170" height="88" rx="14" fill="#122035" stroke="#2e4263" stroke-width="2"/>
    <circle cx="492" cy="486" r="12" fill="#ffd166"/>
    <text x="516" y="490" class="cardTitle">Review first</text>
    <text x="485" y="522" class="cardText">Preview and queue actions</text>

    <rect x="652" y="455" width="170" height="88" rx="14" fill="#122035" stroke="#2e4263" stroke-width="2"/>
    <circle cx="682" cy="486" r="12" fill="#f78c6b"/>
    <text x="706" y="490" class="cardTitle">Rollback</text>
    <text x="675" y="522" class="cardText">Snapshots before changes</text>

    <rect x="842" y="455" width="170" height="88" rx="14" fill="#122035" stroke="#2e4263" stroke-width="2"/>
    <circle cx="872" cy="486" r="12" fill="#b18cff"/>
    <text x="896" y="490" class="cardTitle">Editor APIs</text>
    <text x="865" y="522" class="cardText">Inspector, Input Map, resources</text>

    <rect x="1032" y="455" width="170" height="88" rx="14" fill="#122035" stroke="#2e4263" stroke-width="2"/>
    <circle cx="1062" cy="486" r="12" fill="#ff6b6b"/>
    <text x="1086" y="490" class="cardTitle">No AI keys</text>
    <text x="1055" y="522" class="cardText">Plugin never calls model APIs</text>
  </g>

  <rect x="388" y="610" width="504" height="44" rx="22" fill="#101827" stroke="#2e4263" stroke-width="2"/>
  <text x="442" y="638" class="small">Local bridge · Reviewable commands · Godot 4</text>
</svg>
