<svg xmlns="http://www.w3.org/2000/svg" width="1280" height="720" viewBox="0 0 1280 720" role="img" aria-labelledby="title desc">
  <title id="title">Godot Codex Bridge overview</title>
  <desc id="desc">A diagram showing Codex using guard checks and a project-local file queue to drive visible Godot editor changes.</desc>
  <defs>
    <linearGradient id="bg" x1="0" x2="1" y1="0" y2="1">
      <stop offset="0%" stop-color="#101826"/>
      <stop offset="100%" stop-color="#0b1020"/>
    </linearGradient>
    <linearGradient id="panel" x1="0" x2="1" y1="0" y2="1">
      <stop offset="0%" stop-color="#1b2940"/>
      <stop offset="100%" stop-color="#121b2b"/>
    </linearGradient>
    <linearGradient id="green" x1="0" x2="1" y1="0" y2="1">
      <stop offset="0%" stop-color="#5ee295"/>
      <stop offset="100%" stop-color="#25a86a"/>
    </linearGradient>
    <linearGradient id="blue" x1="0" x2="1" y1="0" y2="1">
      <stop offset="0%" stop-color="#55a7ff"/>
      <stop offset="100%" stop-color="#2669cc"/>
    </linearGradient>
    <filter id="shadow" x="-20%" y="-20%" width="140%" height="140%">
      <feDropShadow dx="0" dy="14" stdDeviation="16" flood-color="#000000" flood-opacity="0.35"/>
    </filter>
    <style>
      .title { font: 700 54px -apple-system, BlinkMacSystemFont, "Segoe UI", sans-serif; fill: #f8fbff; }
      .subtitle { font: 400 24px -apple-system, BlinkMacSystemFont, "Segoe UI", sans-serif; fill: #aebbd1; }
      .label { font: 700 25px -apple-system, BlinkMacSystemFont, "Segoe UI", sans-serif; fill: #f7fbff; }
      .small { font: 500 17px -apple-system, BlinkMacSystemFont, "Segoe UI", sans-serif; fill: #b9c6da; }
      .tiny { font: 560 14px -apple-system, BlinkMacSystemFont, "Segoe UI", sans-serif; fill: #8fa0ba; }
      .cardTitle { font: 700 18px -apple-system, BlinkMacSystemFont, "Segoe UI", sans-serif; fill: #f7fbff; }
      .cardText { font: 500 15px -apple-system, BlinkMacSystemFont, "Segoe UI", sans-serif; fill: #b9c6da; }
      .mono { font: 650 14px "SFMono-Regular", Consolas, monospace; fill: #c8d7ec; }
      .stroke { stroke: #2e4263; stroke-width: 2; }
      .chip { fill: #132033; stroke: #395174; stroke-width: 2; }
      .accent { fill: #55d58a; }
      .blue { fill: #55a7ff; }
      .line { stroke: #55a7ff; stroke-width: 5; stroke-linecap: round; fill: none; }
    </style>
  </defs>

  <rect width="1280" height="720" fill="url(#bg)"/>
  <circle cx="1060" cy="82" r="180" fill="#17375d" opacity="0.22"/>
  <circle cx="190" cy="622" r="230" fill="#175d3a" opacity="0.12"/>

  <text x="70" y="86" class="title">Godot Codex Bridge</text>
  <text x="72" y="126" class="subtitle">Local, reviewable editor automation for Godot 4</text>

  <g filter="url(#shadow)">
    <rect x="70" y="178" width="278" height="214" rx="18" fill="url(#panel)" class="stroke"/>
    <rect x="102" y="218" width="214" height="82" rx="10" fill="#0d1320" stroke="#344967" stroke-width="2"/>
    <circle cx="124" cy="242" r="6" fill="#ff6b6b"/>
    <circle cx="146" cy="242" r="6" fill="#ffd166"/>
    <circle cx="168" cy="242" r="6" fill="#55d58a"/>
    <text x="116" y="278" class="small">$ codex</text>
    <text x="106" y="330" class="label">Codex</text>
    <text x="106" y="358" class="small">Runs guard, then sends</text>
  </g>

  <path d="M366 286 C405 286 422 286 462 286" class="line"/>
  <path d="M462 286 L444 275 L444 297 Z" fill="#55a7ff"/>

  <g filter="url(#shadow)">
    <rect x="484" y="162" width="360" height="248" rx="22" fill="url(#panel)" class="stroke"/>
    <text x="524" y="218" class="label">Project File Queue</text>
    <text x="524" y="250" class="small">No shared port by default</text>
    <rect x="524" y="284" width="118" height="48" rx="10" class="chip"/>
    <text x="561" y="315" class="small">inbox</text>
    <rect x="654" y="284" width="118" height="48" rx="10" class="chip"/>
    <text x="687" y="315" class="small">outbox</text>
    <rect x="524" y="346" width="248" height="34" rx="10" fill="#101827" stroke="#2e4263" stroke-width="2"/>
    <text x="554" y="369" class="mono">.godot/godot_codex_bridge</text>
  </g>

  <path d="M860 286 C900 286 917 286 956 286" class="line"/>
  <path d="M956 286 L938 275 L938 297 Z" fill="#55a7ff"/>

  <g filter="url(#shadow)">
    <rect x="978" y="178" width="232" height="214" rx="18" fill="url(#panel)" class="stroke"/>
    <rect x="1006" y="214" width="176" height="120" rx="10" fill="#101827" stroke="#344967" stroke-width="2"/>
    <rect x="1022" y="234" width="46" height="80" rx="6" fill="#17253a"/>
    <circle cx="1128" cy="260" r="18" class="blue"/>
    <rect x="1090" y="296" width="76" height="10" rx="5" class="accent"/>
    <text x="1018" y="368" class="label">Godot Editor</text>
    <text x="1018" y="393" class="small">Visible changes</text>
  </g>

  <g>
    <rect x="70" y="472" width="258" height="100" rx="14" fill="#122035" stroke="#2e4263" stroke-width="2"/>
    <circle cx="104" cy="507" r="12" class="accent"/>
    <text x="132" y="512" class="cardTitle">Bootstrap</text>
    <text x="104" y="546" class="cardText">Install addon and tools.</text>

    <rect x="366" y="472" width="258" height="100" rx="14" fill="#122035" stroke="#2e4263" stroke-width="2"/>
    <circle cx="400" cy="507" r="12" class="blue"/>
    <text x="428" y="512" class="cardTitle">Review loop</text>
    <text x="400" y="546" class="cardText">Preview, queue, apply.</text>

    <rect x="662" y="472" width="258" height="100" rx="14" fill="#122035" stroke="#2e4263" stroke-width="2"/>
    <circle cx="696" cy="507" r="12" fill="#ffd166"/>
    <text x="724" y="512" class="cardTitle">Snapshots</text>
    <text x="696" y="546" class="cardText">Rollback changed files.</text>

    <rect x="958" y="472" width="252" height="100" rx="14" fill="#122035" stroke="#2e4263" stroke-width="2"/>
    <circle cx="992" cy="507" r="12" fill="#ff6b6b"/>
    <text x="1020" y="512" class="cardTitle">No AI keys</text>
    <text x="992" y="546" class="cardText">Plugin calls no models.</text>
  </g>

  <rect x="318" y="620" width="644" height="44" rx="22" fill="#101827" stroke="#2e4263" stroke-width="2"/>
  <text x="414" y="648" class="small">Guarded project · Reviewable commands · Godot 4 demos</text>
</svg>
